<?xml version="1.0" encoding="utf-8"?>
<!-- Generator: Adobe Illustrator 12.0.1, SVG Export Plug-In . SVG Version: 6.00 Build 51448)  -->
<!DOCTYPE svg PUBLIC "-//W3C//DTD SVG 1.1//EN" "http://www.w3.org/Graphics/SVG/1.1/DTD/svg11.dtd" [
	<!ENTITY ns_svg "http://www.w3.org/2000/svg">
	<!ENTITY ns_xlink "http://www.w3.org/1999/xlink">
]>
<svg  version="1.1" id="Elements" xmlns="&ns_svg;" xmlns:xlink="&ns_xlink;" width="252" height="224.567"
	 viewBox="0 0 252 224.567" overflow="visible" enable-background="new 0 0 252 224.567" xml:space="preserve">
<path fill="#eee" d="M237.832,92.725c1.386-10.104,1.432-18.852,0.409-26.378c-6.202-45.665-51.72-46.388-75.896-32.375
	c-8.34-25.367-27.534-34.48-46.513-33.95C92.073,0.685,68.653,16.46,67.292,34.378C34.001,35.086-0.935,66.31,0.019,102.294
	c0.592,22.323,14.996,46.479,52.174,66.319c5.895,37.911,34.386,54.918,61.637,55.908c22.75,0.827,44.636-9.51,51.785-28.167
	c59.188,0,85.59-30.083,86.367-61.878C252.336,120.024,247.395,105.219,237.832,92.725z"/>
<path fill="#fff" d="M237.832,92.725c1.386-10.104,1.432-18.852,0.409-26.378c-6.202-45.665-51.72-46.388-75.896-32.375
	c-8.34-25.367-27.534-34.48-46.513-33.95C92.073,0.685,68.653,16.46,67.292,34.378C34.001,35.086-0.935,66.31,0.019,102.294
	c0.592,22.323,14.996,46.479,52.174,66.319c5.895,37.911,34.386,54.918,61.637,55.908c22.75,0.827,44.636-9.51,51.785-28.167
	c59.188,0,85.59-30.083,86.367-61.878C252.336,120.024,247.395,105.219,237.832,92.725z M65.217,120.647
	c-1.367-2.941-3.624-7.54-4.208-11.849c0-0.196-0.105-0.296-0.105-0.492c-4.629-22.927,3.528-35.984,12.097-44.553
	c-59.164,16.735-13.818,84.921-13.818,84.921c-24.127,8.516-40.852-20.86-38.615-53.708C22.157,71.639,48.11,42.54,80.345,51.925
	c22.845-38.355,67.713-17.839,70.945,2.625c-34.864-14.688-68.659-6.048-75.104,56.892v0.096
	c20.072,29.802,55.129,43.673,73.049,12.341c8.616-15.276,4.304-37.112-13.713-42.893c-14.487-4.6-32.503,6.268-27.606,22.917
	c5.67-10.868,21.343-11.652,28.095-1.468c5.584,8.515,1.472,23.4-9.793,24.872c-0.096,0.096-0.19,0.096-0.286,0.096
	c-1.377,0.293-2.936,0.393-4.408,0.293c-34.665,0.195-35.353-48.665-6.369-59.337c30.553-11.164,57.089,18.997,51.121,48.272
	c-6.56,31.825-41.912,45.633-70.504,33.785C82.258,144.831,71.194,134.063,65.217,120.647z M177.138,162.493
	c-7.438,25.656-55.224,75.07-102.912,8.189c51.801,17.529,84.017-3.719,97.729-13.708c29.176-28.591,32.111-73.345-5.489-90.38
	c39.169-12.24,65.467,32.441,65.467,43.491C231.933,124.333,213.353,153.925,177.138,162.493z"/>
</svg>
